<svg width="20" height="25" viewBox="0 0 20 25" fill="none" xmlns="http://www.w3.org/2000/svg">
<path d="M13.0769 21.4285C13.0769 22.3757 12.7527 23.2842 12.1757 23.9539C11.5987 24.6237 10.8161 25 10 25C9.18395 25 8.40132 24.6237 7.82429 23.9539C7.24725 23.2842 6.92308 22.3757 6.92308 21.4285H13.0769ZM17.6923 19.6428H0.923077C0.678262 19.6428 0.443473 19.5299 0.270363 19.329C0.0972525 19.1281 0 18.8555 0 18.5714C0 18.2872 0.0972525 18.0147 0.270363 17.8137C0.443473 17.6128 0.678262 17.4999 0.923077 17.4999H2.30769V10.7142C2.30769 6.39269 4.95385 2.78552 8.46923 1.96408C8.44776 1.71578 8.47136 1.46502 8.53851 1.22795C8.60567 0.990893 8.71488 0.772801 8.85911 0.587743C9.00334 0.402685 9.17939 0.254769 9.3759 0.153536C9.5724 0.0523031 9.78501 0 10 0C10.215 0 10.4276 0.0523031 10.6241 0.153536C10.8206 0.254769 10.9967 0.402685 11.1409 0.587743C11.2851 0.772801 11.3943 0.990893 11.4615 1.22795C11.5286 1.46502 11.5522 1.71578 11.5308 1.96408C13.2694 2.37456 14.8324 3.46977 15.9553 5.06431C17.0781 6.65885 17.6917 8.65476 17.6923 10.7142V17.4999H19.0769C19.3217 17.4999 19.5565 17.6128 19.7296 17.8137C19.9027 18.0147 20 18.2872 20 18.5714C20 18.8555 19.9027 19.1281 19.7296 19.329C19.5565 19.5299 19.3217 19.6428 19.0769 19.6428H17.6923Z" fill="#BF59FD"/>
</svg>
