<svg width="56" height="56" viewBox="0 0 56 56" fill="none" xmlns="http://www.w3.org/2000/svg">
<path d="M28 5.25C15.456 5.25 5.25 15.456 5.25 28C5.25 40.544 15.456 50.75 28 50.75C40.544 50.75 50.75 40.544 50.75 28C50.75 15.456 40.544 5.25 28 5.25ZM28 8.75C38.6505 8.75 47.25 17.3495 47.25 28C47.25 38.6505 38.6505 47.25 28 47.25C17.3495 47.25 8.75 38.6505 8.75 28C8.75 17.3495 17.3495 8.75 28 8.75ZM28 19.4145L26.7418 20.6168L16.2418 31.1168L18.7582 33.6332L28 24.3898L37.2418 33.6332L39.7583 31.1168L29.2582 20.6168L28 19.4145Z" fill="#BF59FD"/>
</svg>
