<svg width="11" height="12" viewBox="0 0 11 12" fill="none" xmlns="http://www.w3.org/2000/svg">
<path fill-rule="evenodd" clip-rule="evenodd" d="M0.792882 8.86974L0.0276978 10.9102C-0.00168484 10.9887 -0.00784389 11.074 0.00995646 11.156C0.0277568 11.2379 0.0687641 11.313 0.128081 11.3722C0.187398 11.4315 0.262517 11.4724 0.344467 11.4901C0.426417 11.5079 0.511735 11.5016 0.59023 11.4721L2.63014 10.707C2.86362 10.6195 3.07568 10.4831 3.25207 10.3069L9.16099 4.39808C9.16099 4.39808 8.95485 3.78023 8.33757 3.16239C7.7203 2.54512 7.10187 2.33898 7.10187 2.33898L1.19294 8.24782C1.01674 8.4242 0.880329 8.63626 0.792882 8.86974ZM7.92587 1.51499L8.73123 0.709639C8.87565 0.565223 9.0684 0.473216 9.26989 0.506991C9.55349 0.553577 9.98732 0.694499 10.3961 1.10387C10.8055 1.51325 10.9464 1.94649 10.993 2.23009C11.0268 2.43157 10.9348 2.62432 10.7904 2.76874L9.98441 3.57409C9.98441 3.57409 9.77885 2.95683 9.16099 2.33956C8.54372 1.72114 7.92587 1.51499 7.92587 1.51499Z" fill="white"/>
</svg>
