<svg width="25" height="15" viewBox="0 0 25 15" fill="none" xmlns="http://www.w3.org/2000/svg">
<path d="M17.0455 6.42857C18.9318 6.42857 20.4432 4.99286 20.4432 3.21429C20.4432 1.43571 18.9318 0 17.0455 0C15.1591 0 13.6364 1.43571 13.6364 3.21429C13.6364 4.99286 15.1591 6.42857 17.0455 6.42857ZM7.95455 6.42857C9.84091 6.42857 11.3523 4.99286 11.3523 3.21429C11.3523 1.43571 9.84091 0 7.95455 0C6.06818 0 4.54545 1.43571 4.54545 3.21429C4.54545 4.99286 6.06818 6.42857 7.95455 6.42857ZM7.95455 8.57143C5.30682 8.57143 0 9.825 0 12.3214V15H15.9091V12.3214C15.9091 9.825 10.6023 8.57143 7.95455 8.57143ZM17.0455 8.57143C16.7159 8.57143 16.3409 8.59286 15.9432 8.625C17.2614 9.525 18.1818 10.7357 18.1818 12.3214V15H25V12.3214C25 9.825 19.6932 8.57143 17.0455 8.57143Z" fill="#BF59FD"/>
</svg>
