<svg width="32" height="32" viewBox="0 0 32 32" fill="none" xmlns="http://www.w3.org/2000/svg">
<path fill-rule="evenodd" clip-rule="evenodd" d="M5.32733 4.26021C5.73599 3.88871 6.36844 3.91882 6.73995 4.32748L26.7399 26.3275C27.1115 26.7361 27.0813 27.3686 26.6727 27.7401C26.264 28.1116 25.6316 28.0815 25.2601 27.6728L5.26007 5.67282C4.88856 5.26417 4.91868 4.63172 5.32733 4.26021Z" fill="#bf59fd"/>
<path fill-rule="evenodd" clip-rule="evenodd" d="M13.3765 11.6277C13.7481 12.0363 13.718 12.6688 13.3094 13.0403C12.5245 13.754 12.0552 14.7501 12.0048 15.8098C11.9544 16.8694 12.327 17.9056 13.0406 18.6906C13.7541 19.4755 14.7503 19.9448 15.8099 19.9953C16.8695 20.0458 17.9058 19.6734 18.6908 18.9599C19.0995 18.5884 19.7319 18.6186 20.1034 19.0273C20.4749 19.436 20.4447 20.0684 20.036 20.4399C18.8585 21.5101 17.3041 22.0688 15.7147 21.9931C14.1253 21.9173 12.631 21.2133 11.5607 20.0359C10.4903 18.8585 9.93148 17.3041 10.0071 15.7147C10.0827 14.1253 10.7866 12.631 11.9639 11.5605C12.3725 11.189 13.005 11.2191 13.3765 11.6277Z" fill="#bf59fd"/>
<path fill-rule="evenodd" clip-rule="evenodd" d="M10.1414 8.12257C10.3909 8.61529 10.1938 9.21697 9.70108 9.46648C7.32544 10.6695 5.62198 12.4086 4.50736 13.8632C3.95172 14.5884 3.54797 15.2357 3.28514 15.6974C3.22103 15.8101 3.16541 15.9115 3.11811 16.0001C3.23576 16.2204 3.40469 16.5196 3.62746 16.8734C4.1285 17.6691 4.8961 18.7317 5.95707 19.7925C8.07323 21.9085 11.3325 23.9992 16 23.9992H16.008L16.008 23.9992C18.1921 24.0166 20.3491 23.5135 22.3001 22.5316C22.7935 22.2833 23.3947 22.482 23.643 22.9753C23.8912 23.4686 23.6926 24.0698 23.1992 24.3181C20.9656 25.4422 18.4965 26.0184 15.9961 25.9992C10.6656 25.998 6.92619 23.5898 4.54293 21.2068C3.3539 20.0179 2.4965 18.8307 1.93504 17.9391C1.65382 17.4925 1.44542 17.1178 1.3056 16.8509C1.23565 16.7174 1.18275 16.6106 1.14638 16.5351C1.12819 16.4973 1.11413 16.4673 1.10412 16.4457L1.09215 16.4195L1.08843 16.4113L1.08713 16.4084L1.08662 16.4073C1.0864 16.4068 1.0862 16.4063 2 16.0002C1.08617 15.5941 1.08632 15.5937 1.08647 15.5934L1.08681 15.5926L1.08765 15.5907L1.08994 15.5856L1.09696 15.5702C1.10272 15.5576 1.11065 15.5405 1.12078 15.5189C1.14105 15.4759 1.17012 15.4155 1.20822 15.3394C1.28438 15.1872 1.39675 14.9721 1.54697 14.7081C1.84711 14.1808 2.30016 13.4555 2.91982 12.6468C4.15582 11.0337 6.07702 9.05989 8.79753 7.68222C9.29024 7.43271 9.89193 7.62986 10.1414 8.12257ZM2 16.0002L1.08617 15.5941C0.971265 15.8526 0.971276 16.1478 1.0862 16.4063L2 16.0002Z" fill="#bf59fd"/>
<path fill-rule="evenodd" clip-rule="evenodd" d="M13.2513 6.22313C14.16 6.07262 15.0797 5.99771 16.0008 5.99917C21.333 5.99943 25.0734 8.40865 27.4571 10.7926C28.6461 11.9817 29.5035 13.1692 30.065 14.061C30.3462 14.5077 30.5546 14.8825 30.6944 15.1494C30.7644 15.283 30.8173 15.3897 30.8536 15.4653C30.8718 15.5031 30.8859 15.5331 30.8959 15.5547L30.9079 15.5808L30.9116 15.5891L30.9134 15.5931C30.9136 15.5936 30.9138 15.594 30 16.0002C29.0862 15.594 29.0863 15.5938 29.0864 15.5936L29.0788 15.61C29.0717 15.6253 29.06 15.6502 29.0435 15.6842C29.0106 15.7521 28.9588 15.8558 28.8875 15.9895C28.8856 15.993 28.8838 15.9966 28.8819 16.0001C28.7642 15.7797 28.5953 15.4804 28.3725 15.1265C27.8714 14.3307 27.1038 13.2678 26.0428 12.2067C23.9267 10.0903 20.6674 7.99917 16 7.99917L15.9983 7.99917C15.1875 7.99785 14.378 8.06377 13.5781 8.19625C13.0332 8.2865 12.5184 7.91795 12.4281 7.37309C12.3379 6.82823 12.7064 6.31338 13.2513 6.22313ZM30 16.0002L30.9138 16.4063C31.0287 16.1478 31.0287 15.8526 30.9138 15.594L30 16.0002ZM28.8819 16.0001C28.7391 16.2675 28.521 16.6506 28.2231 17.1063C27.6179 18.0317 26.6915 19.244 25.409 20.3927C24.9976 20.7611 24.9628 21.3934 25.3313 21.8048C25.6997 22.2161 26.332 22.2509 26.7434 21.8825C28.1861 20.5903 29.2215 19.2338 29.897 18.2008C30.2354 17.6832 30.4855 17.2438 30.6528 16.9297C30.7364 16.7726 30.7996 16.6465 30.8428 16.5574C30.8644 16.5128 30.8811 16.4775 30.8929 16.4521L30.907 16.4215L30.9113 16.4119L30.9127 16.4086L30.9138 16.4063C30.9139 16.4061 30.9138 16.4063 30 16.0002C29.0862 16.4063 29.0863 16.4066 29.0865 16.407L29.0805 16.394C29.0748 16.3815 29.0652 16.361 29.0516 16.3328C29.0245 16.2765 28.9817 16.1899 28.9227 16.0774C28.9099 16.0528 28.8963 16.027 28.8819 16.0001Z" fill="#bf59fd"/>
<path fill-rule="evenodd" clip-rule="evenodd" d="M15.9589 10.9C16.063 10.3577 16.5871 10.0024 17.1295 10.1066C18.4046 10.3514 19.566 11.0031 20.4394 11.9639C21.3128 12.9247 21.8511 14.1427 21.9737 15.4353C22.0258 15.9852 21.6223 16.4731 21.0725 16.5253C20.5227 16.5774 20.0347 16.1739 19.9826 15.6241C19.9009 14.7621 19.5419 13.9499 18.9595 13.3092C18.3771 12.6685 17.6026 12.234 16.7523 12.0707C16.21 11.9665 15.8547 11.4424 15.9589 10.9Z" fill="#bf59fd"/>
</svg>
