<svg width="24" height="24" viewBox="0 0 24 24" fill="none" xmlns="http://www.w3.org/2000/svg">
<path d="M20.9 4H10.85C10.6298 3.4196 10.2404 2.91868 9.7323 2.5621C9.22417 2.20551 8.62069 2.0097 8 2C7.38448 2.00584 6.78565 2.20088 6.28476 2.55866C5.78387 2.91645 5.40515 3.41965 5.2 4H3.1C2.96208 3.99328 2.82418 4.01382 2.69421 4.06046C2.56423 4.10711 2.44474 4.17893 2.34256 4.27182C2.24038 4.36471 2.15753 4.47684 2.09875 4.60179C2.03997 4.72674 2.00641 4.86206 2 5C2.00641 5.13794 2.03997 5.27326 2.09875 5.39821C2.15753 5.52316 2.24038 5.63529 2.34256 5.72818C2.44474 5.82107 2.56423 5.89289 2.69421 5.93954C2.82418 5.98618 2.96208 6.00672 3.1 6H5.2C5.40515 6.58035 5.78387 7.08356 6.28476 7.44134C6.78565 7.79912 7.38448 7.99416 8 8C8.62069 7.9903 9.22417 7.79449 9.7323 7.4379C10.2404 7.08132 10.6298 6.5804 10.85 6H20.9C21.0379 6.00672 21.1758 5.98618 21.3058 5.93954C21.4358 5.89289 21.5553 5.82107 21.6574 5.72818C21.7596 5.63529 21.8425 5.52316 21.9012 5.39821C21.96 5.27326 21.9936 5.13794 22 5C21.9936 4.86206 21.96 4.72674 21.9012 4.60179C21.8425 4.47684 21.7596 4.36471 21.6574 4.27182C21.5553 4.17893 21.4358 4.10711 21.3058 4.06046C21.1758 4.01382 21.0379 3.99328 20.9 4Z" fill="#BF59FD"/>
<path d="M20.8986 11H18.8486C18.6284 10.4196 18.2391 9.91868 17.7309 9.5621C17.2228 9.20551 16.6193 9.0097 15.9986 9C15.3831 9.00584 14.7843 9.20088 14.2834 9.55866C13.7825 9.91644 13.4038 10.4196 13.1986 11H3.09863C2.83342 11 2.57906 11.1054 2.39153 11.2929C2.20399 11.4804 2.09863 11.7348 2.09863 12C2.09863 12.2652 2.20399 12.5196 2.39153 12.7071C2.57906 12.8946 2.83342 13 3.09863 13H13.1986C13.4038 13.5804 13.7825 14.0836 14.2834 14.4413C14.7843 14.7991 15.3831 14.9942 15.9986 15C16.6193 14.9903 17.2228 14.7945 17.7309 14.4379C18.2391 14.0813 18.6284 13.5804 18.8486 13H20.8986C21.1638 13 21.4182 12.8946 21.6057 12.7071C21.7933 12.5196 21.8986 12.2652 21.8986 12C21.8986 11.7348 21.7933 11.4804 21.6057 11.2929C21.4182 11.1054 21.1638 11 20.8986 11Z" fill="#BF59FD"/>
<path d="M20.8986 18H12.3486C12.1284 17.4196 11.7391 16.9187 11.2309 16.5621C10.7228 16.2055 10.1193 16.0097 9.49863 16C8.88311 16.0058 8.28429 16.2009 7.78339 16.5587C7.2825 16.9164 6.90379 17.4196 6.69863 18H3.09863C2.83342 18 2.57906 18.1054 2.39153 18.2929C2.20399 18.4804 2.09863 18.7348 2.09863 19C2.09863 19.2652 2.20399 19.5196 2.39153 19.7071C2.57906 19.8946 2.83342 20 3.09863 20H6.69863C6.90379 20.5804 7.2825 21.0836 7.78339 21.4413C8.28429 21.7991 8.88311 21.9942 9.49863 22C10.1193 21.9903 10.7228 21.7945 11.2309 21.4379C11.7391 21.0813 12.1284 20.5804 12.3486 20H20.8986C21.1638 20 21.4182 19.8946 21.6057 19.7071C21.7933 19.5196 21.8986 19.2652 21.8986 19C21.8986 18.7348 21.7933 18.4804 21.6057 18.2929C21.4182 18.1054 21.1638 18 20.8986 18Z" fill="#BF59FD"/>
</svg>
