<svg width="14" height="17" viewBox="0 0 14 17" fill="none" xmlns="http://www.w3.org/2000/svg">
<path fill-rule="evenodd" clip-rule="evenodd" d="M13.9045 2.41592L11.5809 0.0967603C11.5526 0.0652008 11.5178 0.0402214 11.4791 0.0235402C11.4403 0.00685902 11.3984 -0.00112825 11.3563 0.000128275C11.262 0.000811996 11.1718 0.0390031 11.1051 0.106446C11.0384 0.173888 11.0007 0.265163 11 0.360538V2.02678C11.0014 2.29442 11.1071 2.5507 11.2941 2.73995C11.4812 2.9292 11.7346 3.03613 11.9991 3.0375H13.6437C13.738 3.03682 13.8282 2.99862 13.8949 2.93118C13.9616 2.86374 13.9993 2.77247 14 2.67709C13.9974 2.58178 13.9638 2.48998 13.9045 2.41592Z" fill="white"/>
<path fill-rule="evenodd" clip-rule="evenodd" d="M1.58219 11.4733V3.03754C1.16773 3.03462 0.768903 3.19742 0.472566 3.49048C0.176229 3.78353 0.00637972 4.18312 2.29611e-06 4.60223V14.5999C-0.000352139 14.8101 0.0403307 15.0184 0.119718 15.2126C0.199105 15.4069 0.315634 15.5835 0.462625 15.7321C0.609616 15.8808 0.784176 15.9986 0.976296 16.0789C1.16842 16.1592 1.37432 16.2003 1.58219 16.2H9.41781C9.83228 16.2029 10.2311 16.0401 10.5274 15.747C10.8238 15.454 10.9936 15.0544 11 14.6353H4.70891C2.99486 14.6353 1.58219 14.6353 1.58219 11.4733Z" fill="white"/>
<path fill-rule="evenodd" clip-rule="evenodd" d="M13.4591 4.74174H10.8356C10.4216 4.74395 10.0235 4.58045 9.72772 4.28676C9.43197 3.99308 9.26249 3.59295 9.25612 3.17331V0.513804C9.26046 0.445318 9.25036 0.37668 9.22647 0.312466C9.20259 0.248251 9.16547 0.189937 9.1176 0.14141C9.06973 0.092883 9.0122 0.0552589 8.94886 0.0310465C8.88551 0.00683413 8.8178 -0.00341023 8.75024 0.000996373H4.5795C4.1655 -0.0012093 3.76736 0.162293 3.47161 0.455975C3.17585 0.749658 3.00637 1.14979 3 1.56943V11.5937C3.00031 11.8026 3.04171 12.0093 3.12177 12.2018C3.20183 12.3943 3.31895 12.5686 3.46627 12.7147C3.6136 12.8607 3.78816 12.9755 3.97977 13.0523C4.17138 13.1292 4.37618 13.1665 4.58219 13.1622H12.4178C12.8323 13.1651 13.2311 13.0019 13.5274 12.7081C13.8238 12.4144 13.9936 12.0138 14 11.5937V5.28728C14 5.21541 13.986 5.14425 13.9588 5.07788C13.9316 5.01152 13.8917 4.95125 13.8414 4.90056C13.7912 4.84987 13.7315 4.80974 13.6659 4.78248C13.6003 4.75523 13.53 4.74138 13.4591 4.74174ZM6.90974 11.5174C6.90974 11.6975 6.83914 11.8702 6.71349 11.9976C6.58784 12.125 6.41742 12.1966 6.23973 12.1966H4.89432C4.71991 12.1916 4.55429 12.1178 4.43269 11.991C4.31108 11.8642 4.24308 11.6942 4.24315 11.5174V10.1535C4.24315 9.97337 4.31374 9.80061 4.43939 9.67324C4.56504 9.54587 4.73546 9.47431 4.91316 9.47431H6.25856C6.43626 9.47431 6.60668 9.54587 6.73233 9.67324C6.85798 9.80061 6.92857 9.97337 6.92857 10.1535L6.90974 11.5174ZM6.90974 7.78586C6.90762 7.9641 6.83646 8.13435 6.71162 8.25989C6.58678 8.38542 6.41826 8.45617 6.24242 8.45687H4.89702C4.72352 8.45265 4.55841 8.38034 4.43645 8.25518C4.31449 8.13002 4.24519 7.96177 4.24315 7.78586V6.42201C4.24315 6.24187 4.31374 6.06912 4.43939 5.94174C4.56504 5.81437 4.73546 5.74281 4.91316 5.74281H6.25856C6.43626 5.74281 6.60668 5.81437 6.73233 5.94174C6.85798 6.06912 6.92857 6.24187 6.92857 6.42201L6.90974 7.78586ZM10.5908 11.5174C10.59 11.697 10.5191 11.8691 10.3936 11.9959C10.268 12.1226 10.098 12.1938 9.92074 12.1938H8.57534C8.39764 12.1938 8.22723 12.1223 8.10157 11.9949C7.97592 11.8675 7.90533 11.6948 7.90533 11.5146V10.1508C7.90533 9.97064 7.97592 9.79789 8.10157 9.67051C8.22723 9.54314 8.39764 9.47158 8.57534 9.47158H9.92074C10.0984 9.47158 10.2689 9.54314 10.3945 9.67051C10.5202 9.79789 10.5908 9.97064 10.5908 10.1508V11.5174ZM10.5908 7.78586C10.5886 7.96457 10.5171 8.13523 10.3917 8.26084C10.2663 8.38645 10.0971 8.45689 9.92074 8.45687H8.57534C8.39764 8.45687 8.22723 8.38532 8.10157 8.25794C7.97592 8.13057 7.90533 7.95781 7.90533 7.77768V6.41382C7.90533 6.23369 7.97592 6.06093 8.10157 5.93356C8.22723 5.80619 8.39764 5.73463 8.57534 5.73463H9.92074C10.0984 5.73463 10.2689 5.80619 10.3945 5.93356C10.5202 6.06093 10.5908 6.23369 10.5908 6.41382V7.78586Z" fill="white"/>
</svg>
