<svg width="205" height="116" viewBox="0 0 205 116" fill="none" xmlns="http://www.w3.org/2000/svg">
<rect x="0.5" y="97.4432" width="31.2" height="18.5568" fill="#962DFF"/>
<rect x="0.5" y="88.1648" width="31.2" height="9.27841" fill="#C893FD"/>
<rect x="0.5" y="80.6722" width="31.2" height="7.49251" fill="#E0C6FD"/>
<path d="M0.5 79.9775C0.5 77.7683 2.29086 75.9775 4.5 75.9775H27.7C29.9091 75.9775 31.7 77.7683 31.7 79.9775V80.6722H0.5V79.9775Z" fill="#F0E5FC"/>
<rect x="43.7002" y="84.852" width="31.2" height="31.148" fill="#962DFF"/>
<rect x="43.7002" y="69.7233" width="31.2" height="15.1285" fill="#C893FD"/>
<rect x="43.7002" y="52.5717" width="31.2" height="17.1517" fill="#E0C6FD"/>
<path d="M43.7002 48.2962C43.7002 46.0871 45.4911 44.2962 47.7002 44.2962H70.9002C73.1093 44.2962 74.9002 46.0871 74.9002 48.2962V52.5718H43.7002V48.2962Z" fill="#F0E5FC"/>
<rect x="86.9004" y="75.7938" width="31.2" height="40.2062" fill="#962DFF"/>
<rect x="86.9004" y="57.1275" width="31.2" height="18.6664" fill="#C893FD"/>
<rect x="86.9004" y="36.1172" width="31.2" height="21.0103" fill="#E0C6FD"/>
<path d="M86.9004 28.7252C86.9004 26.516 88.6913 24.7252 90.9004 24.7252H114.1C116.31 24.7252 118.1 26.516 118.1 28.7252V36.1172H86.9004V28.7252Z" fill="#F0E5FC"/>
<rect x="130.1" y="69.2547" width="31.2" height="46.7453" fill="#962DFF"/>
<rect x="130.1" y="45.4021" width="31.2" height="23.8526" fill="#C893FD"/>
<rect x="130.1" y="19.2055" width="31.2" height="26.1965" fill="#E0C6FD"/>
<path d="M130.1 11.8135C130.1 9.6044 131.89 7.81354 134.1 7.81354H157.3C159.509 7.81354 161.3 9.6044 161.3 11.8135V19.2056H130.1V11.8135Z" fill="#F0E5FC"/>
<rect x="173.3" y="73.8803" width="31.2" height="42.1197" fill="#962DFF"/>
<rect x="173.3" y="53.586" width="31.2" height="20.2944" fill="#C893FD"/>
<rect x="173.3" y="32.3898" width="31.2" height="21.1962" fill="#E0C6FD"/>
<path d="M173.3 25.042C173.3 22.8328 175.091 21.042 177.3 21.042H200.5C202.709 21.042 204.5 22.8328 204.5 25.042V32.3898H173.3V25.042Z" fill="#F0E5FC"/>
</svg>
