<svg width="40" height="40" viewBox="0 0 40 40" fill="none" xmlns="http://www.w3.org/2000/svg">
<rect width="40" height="40" rx="20" fill="#BF59FD"/>
<path d="M26.4615 27H13.5385C13.2441 27 13 26.7706 13 26.494C13 26.2173 13.2441 25.9879 13.5385 25.9879H26.4615C26.7559 25.9879 27 26.2173 27 26.494C27 26.7706 26.7559 27 26.4615 27Z" fill="white"/>
<path d="M15.4048 17.3038H14.256C13.8612 17.3038 13.5381 17.6075 13.5381 17.9785V23.7944C13.5381 24.1655 13.8612 24.4691 14.256 24.4691H15.4048C15.7996 24.4691 16.1227 24.1655 16.1227 23.7944V17.9785C16.1227 17.6007 15.7996 17.3038 15.4048 17.3038Z" fill="white"/>
<path d="M20.5737 15.1532H19.425C19.0301 15.1532 18.707 15.4569 18.707 15.8279V23.7961C18.707 24.1672 19.0301 24.4708 19.425 24.4708H20.5737C20.9686 24.4708 21.2916 24.1672 21.2916 23.7961V15.8279C21.2916 15.4569 20.9686 15.1532 20.5737 15.1532Z" fill="white"/>
<path d="M25.7436 13H24.5949C24.2 13 23.877 13.3036 23.877 13.6747V23.7952C23.877 24.1663 24.2 24.4699 24.5949 24.4699H25.7436C26.1385 24.4699 26.4616 24.1663 26.4616 23.7952V13.6747C26.4616 13.3036 26.1385 13 25.7436 13Z" fill="white"/>
</svg>
