<svg width="20" height="20" viewBox="0 0 20 20" fill="none" xmlns="http://www.w3.org/2000/svg">
<path d="M1.81827 4.66659C1.81827 3.00974 3.16142 1.66659 4.81827 1.66659H13.3649C15.0218 1.66659 16.3649 3.00974 16.3649 4.66659V9.92381C16.3649 10.426 16.772 10.8331 17.2742 10.8331C17.7764 10.8331 18.1835 10.426 18.1835 9.92381V3C18.1835 1.34315 16.8403 0 15.1835 0H3C1.34314 0 0 1.34315 0 3V16.9998C0 18.6566 1.34315 19.9998 3 19.9998H9.16745C9.62766 19.9998 10.0007 19.6267 10.0007 19.1665C10.0007 18.7063 9.62767 18.3332 9.16745 18.3332H4.81827C3.16142 18.3332 1.81827 16.99 1.81827 15.3332V4.66659Z" fill="#BF59FD"/>
<path d="M3.63672 4.16643C3.63672 3.70621 4.0098 3.33313 4.47001 3.33313H13.7136C14.1738 3.33313 14.5469 3.70621 14.5469 4.16643C14.5469 4.62664 14.1738 4.99972 13.7136 4.99972H4.47002C4.0098 4.99972 3.63672 4.62664 3.63672 4.16643ZM3.63672 7.49983C3.63672 7.03962 4.0098 6.66654 4.47001 6.66654H11.895C12.3553 6.66654 12.7283 7.03962 12.7283 7.49983C12.7283 7.96005 12.3552 8.33313 11.895 8.33313H4.47001C4.0098 8.33313 3.63672 7.96005 3.63672 7.49983ZM3.63672 10.833C3.63672 10.3728 4.0098 9.99972 4.47001 9.99972H8.25849C8.7187 9.99972 9.09178 10.3728 9.09178 10.833C9.09178 11.2932 8.7187 11.6663 8.25849 11.6663H4.47001C4.0098 11.6663 3.63672 11.2932 3.63672 10.833ZM15.454 11.6665C12.9434 11.6665 10.9081 13.5321 10.9081 15.8332C10.9081 18.1344 12.9434 19.9999 15.454 19.9999C17.9646 19.9999 19.9999 18.1344 19.9999 15.8332C19.9999 13.5321 17.9646 11.6665 15.454 11.6665ZM15.454 18.3331C13.95 18.3331 12.7266 17.2116 12.7266 15.8332C12.7266 14.4547 13.9502 13.3334 15.454 13.3334C16.958 13.3334 18.1814 14.4549 18.1814 15.8332C18.1814 17.2116 16.9578 18.3331 15.454 18.3331Z" fill="#BF59FD"/>
<path d="M15.6016 15.5545C15.3343 15.8365 14.8944 15.8639 14.5942 15.6172L14.5289 15.5636C14.2689 15.3501 13.8888 15.3708 13.6535 15.6114C13.3877 15.8834 13.4118 16.3246 13.7058 16.566L14.286 17.0424C14.828 17.4875 15.6218 17.438 16.1045 16.9291L17.3165 15.6511C17.5809 15.3724 17.5499 14.927 17.2495 14.6875C16.9834 14.4754 16.5993 14.5021 16.3652 14.7491L15.6016 15.5545Z" fill="#BF59FD"/>
</svg>
