<svg width="26" height="27" viewBox="0 0 26 27" fill="none" xmlns="http://www.w3.org/2000/svg">
<rect y="0.138184" width="26" height="26.2766" rx="13" fill="#0A66C2"/>
<path d="M19.094 6.05042H6.90523C6.62526 6.05042 6.35676 6.16282 6.15879 6.36289C5.96083 6.56296 5.84961 6.83432 5.84961 7.11727V19.4357C5.84961 19.7186 5.96083 19.99 6.15879 20.1901C6.35676 20.3901 6.62526 20.5025 6.90523 20.5025H19.094C19.374 20.5025 19.6425 20.3901 19.8404 20.1901C20.0384 19.99 20.1496 19.7186 20.1496 19.4357V7.11727C20.1496 6.83432 20.0384 6.56296 19.8404 6.36289C19.6425 6.16282 19.374 6.05042 19.094 6.05042ZM10.1118 18.3618H7.96184V11.4599H10.1118V18.3618ZM9.03533 10.5035C8.79146 10.5021 8.55345 10.4277 8.35136 10.2898C8.14926 10.1518 7.99213 9.95643 7.8998 9.7283C7.80747 9.50017 7.78407 9.24951 7.83256 9.00796C7.88105 8.76641 7.99926 8.54478 8.17226 8.37106C8.34526 8.19733 8.56531 8.0793 8.80462 8.03184C9.04394 7.98439 9.29181 8.00964 9.51693 8.10442C9.74206 8.1992 9.93437 8.35925 10.0696 8.56437C10.2048 8.7695 10.2768 9.01051 10.2767 9.25699C10.279 9.422 10.2484 9.58579 10.1867 9.7386C10.125 9.89142 10.0335 10.0301 9.9177 10.1464C9.80187 10.2628 9.66404 10.3543 9.51245 10.4157C9.36085 10.477 9.19859 10.5069 9.03533 10.5035ZM18.0364 18.3678H15.8874V14.5972C15.8874 13.4852 15.4197 13.142 14.8159 13.142C14.1784 13.142 13.5527 13.6278 13.5527 14.6253V18.3678H11.4028V11.4649H13.4703V12.4214H13.4981C13.7057 11.9969 14.4326 11.2713 15.5418 11.2713C16.7414 11.2713 18.0374 11.9908 18.0374 14.0984L18.0364 18.3678Z" fill="white"/>
</svg>
