<svg width="512" height="512" viewBox="0 0 512 512" fill="none" xmlns="http://www.w3.org/2000/svg">
<path d="M396.565 0.00322344H115.435C85.0932 -0.224217 55.9003 11.5924 34.2599 32.8609C12.6194 54.1294 0.29856 83.113 0 113.454L0 153.219C0 161.706 3.37142 169.845 9.37258 175.847C15.3737 181.848 23.5131 185.219 32 185.219C40.4869 185.219 48.6263 181.848 54.6274 175.847C60.6286 169.845 64 161.706 64 153.219V113.454C64.2858 100.083 69.8596 87.3707 79.5005 78.1018C89.1413 68.8328 102.063 63.7631 115.435 64.0032H396.565C409.937 63.7631 422.859 68.8328 432.5 78.1018C442.14 87.3707 447.714 100.083 448 113.454V398.553C447.714 411.923 442.14 424.636 432.5 433.905C422.859 443.174 409.937 448.243 396.565 448.003H115.435C102.063 448.243 89.1413 443.174 79.5005 433.905C69.8596 424.636 64.2858 411.923 64 398.553V358.787C64 350.3 60.6286 342.161 54.6274 336.16C48.6263 330.159 40.4869 326.787 32 326.787C23.5131 326.787 15.3737 330.159 9.37258 336.16C3.37142 342.161 0 350.3 0 358.787L0 398.553C0.29856 428.893 12.6194 457.877 34.2599 479.146C55.9003 500.414 85.0932 512.231 115.435 512.003H396.565C426.907 512.231 456.1 500.414 477.74 479.146C499.381 457.877 511.701 428.893 512 398.553V113.454C511.701 83.113 499.381 54.1294 477.74 32.8609C456.1 11.5924 426.907 -0.224217 396.565 0.00322344Z" fill="#BF59FD"/>
<path d="M74.6665 256C74.6665 264.487 78.0379 272.626 84.0391 278.627C90.0403 284.629 98.1796 288 106.667 288L319.467 287.424L245.525 361.365C239.522 367.366 236.148 375.505 236.146 383.993C236.144 392.48 239.514 400.621 245.515 406.624C251.515 412.627 259.654 416.001 268.142 416.003C276.629 416.005 284.77 412.635 290.773 406.635L388.608 308.8C395.542 301.866 401.043 293.635 404.796 284.575C408.548 275.516 410.48 265.806 410.48 256C410.48 246.194 408.548 236.484 404.796 227.425C401.043 218.365 395.542 210.134 388.608 203.2L290.859 105.365C287.886 102.394 284.358 100.038 280.474 98.4305C276.591 96.8231 272.43 95.9963 268.227 95.9973C264.024 95.9983 259.863 96.8271 255.981 98.4363C252.098 100.045 248.571 102.404 245.6 105.376C239.6 111.379 236.23 119.52 236.232 128.008C236.233 132.21 237.062 136.372 238.671 140.254C240.28 144.136 242.638 147.664 245.61 150.635L318.421 223.424L106.667 224C98.1796 224 90.0403 227.371 84.0391 233.373C78.0379 239.374 74.6665 247.513 74.6665 256Z" fill="#BF59FD"/>
</svg>
