<svg width="40" height="40" viewBox="0 0 40 40" fill="none" xmlns="http://www.w3.org/2000/svg">
<rect x="0.5" y="0.5" width="39" height="39" rx="19.5" stroke="#9E9E9E"/>
<path d="M20.0134 13.94C17.8067 13.94 16.0134 15.7333 16.0134 17.94V19.8667C16.0134 20.2733 15.8401 20.8933 15.6334 21.24L14.8667 22.5133C14.3934 23.3 14.7201 24.1733 15.5867 24.4667C18.4601 25.4267 21.5601 25.4267 24.4334 24.4667C25.2401 24.2 25.5934 23.2467 25.1534 22.5133L24.3867 21.24C24.1867 20.8933 24.0134 20.2733 24.0134 19.8667V17.94C24.0134 15.74 22.2134 13.94 20.0134 13.94Z" stroke="white" stroke-width="1.5" stroke-miterlimit="10" stroke-linecap="round"/>
<path d="M21.2469 14.1333C21.0403 14.0733 20.8269 14.0267 20.6069 14C19.9669 13.92 19.3536 13.9667 18.7803 14.1333C18.9736 13.64 19.4536 13.2933 20.0136 13.2933C20.5736 13.2933 21.0536 13.64 21.2469 14.1333Z" stroke="white" stroke-width="1.5" stroke-miterlimit="10" stroke-linecap="round" stroke-linejoin="round"/>
<path d="M22.0137 24.7067C22.0137 25.8067 21.1137 26.7067 20.0137 26.7067C19.467 26.7067 18.9603 26.48 18.6003 26.12C18.2403 25.76 18.0137 25.2533 18.0137 24.7067" stroke="white" stroke-width="1.5" stroke-miterlimit="10"/>
</svg>
