<svg width="20" height="25" viewBox="0 0 20 25" fill="none" xmlns="http://www.w3.org/2000/svg">
<path d="M16.25 8.75V6.25C16.25 2.75 13.5 0 10 0C6.5 0 3.75 2.75 3.75 6.25V8.75C1.625 8.75 0 10.375 0 12.5V21.25C0 23.375 1.625 25 3.75 25H16.25C18.375 25 20 23.375 20 21.25V12.5C20 10.375 18.375 8.75 16.25 8.75ZM6.25 6.25C6.25 4.125 7.875 2.5 10 2.5C12.125 2.5 13.75 4.125 13.75 6.25V8.75H6.25V6.25ZM11.375 16.875L11.25 17V18.75C11.25 19.5 10.75 20 10 20C9.25 20 8.75 19.5 8.75 18.75V17C8 16.25 7.875 15.125 8.625 14.375C9.375 13.625 10.5 13.5 11.25 14.25C12 14.875 12.125 16.125 11.375 16.875Z" fill="#BF59FD"/>
</svg>
