<svg width="40" height="40" viewBox="0 0 40 40" fill="none" xmlns="http://www.w3.org/2000/svg">
<rect width="40" height="40" rx="20" fill="#BF59FD"/>
<path fill-rule="evenodd" clip-rule="evenodd" d="M26.9045 14.3861L24.5809 12.0956C24.5526 12.0644 24.5178 12.0397 24.4791 12.0232C24.4403 12.0068 24.3984 11.9989 24.3563 12.0001C24.262 12.0008 24.1718 12.0385 24.1051 12.1051C24.0384 12.1717 24.0007 12.2619 24 12.3561V14.0018C24.0014 14.2661 24.1071 14.5192 24.2941 14.7061C24.4812 14.893 24.7346 14.9986 24.9991 15H26.6437C26.738 14.9993 26.8282 14.9616 26.8949 14.895C26.9616 14.8284 26.9993 14.7382 27 14.644C26.9974 14.5499 26.9638 14.4592 26.9045 14.3861Z" fill="white"/>
<path fill-rule="evenodd" clip-rule="evenodd" d="M14.5822 23.3316V15C14.1677 14.9972 13.7689 15.1579 13.4726 15.4474C13.1762 15.7368 13.0064 16.1315 13 16.5454V26.4197C12.9996 26.6273 13.0403 26.8329 13.1197 27.0248C13.1991 27.2167 13.3156 27.3911 13.4626 27.5379C13.6096 27.6847 13.7842 27.8011 13.9763 27.8804C14.1684 27.9597 14.3743 28.0003 14.5822 28H22.4178C22.8323 28.0028 23.2311 27.8421 23.5274 27.5526C23.8238 27.2632 23.9936 26.8685 24 26.4546H17.7089C15.9949 26.4546 14.5822 26.4546 14.5822 23.3316Z" fill="white"/>
<path fill-rule="evenodd" clip-rule="evenodd" d="M26.4591 16.6832H23.8356C23.4216 16.6854 23.0235 16.5239 22.7277 16.2338C22.432 15.9438 22.2625 15.5486 22.2561 15.1341V12.5075C22.2605 12.4398 22.2504 12.372 22.2265 12.3086C22.2026 12.2452 22.1655 12.1876 22.1176 12.1397C22.0697 12.0917 22.0122 12.0546 21.9489 12.0307C21.8855 12.0067 21.8178 11.9966 21.7502 12.001H17.5795C17.1655 11.9988 16.7674 12.1603 16.4716 12.4503C16.1759 12.7404 16.0064 13.1356 16 13.55V23.4506C16.0003 23.6569 16.0417 23.8611 16.1218 24.0512C16.2018 24.2413 16.3189 24.4135 16.4663 24.5577C16.6136 24.7019 16.7882 24.8153 16.9798 24.8912C17.1714 24.9671 17.3762 25.004 17.5822 24.9997H25.4178C25.8323 25.0026 26.2311 24.8414 26.5274 24.5513C26.8238 24.2611 26.9936 23.8655 27 23.4506V17.222C27 17.151 26.986 17.0807 26.9588 17.0152C26.9316 16.9496 26.8917 16.8901 26.8414 16.8401C26.7912 16.79 26.7315 16.7504 26.6659 16.7234C26.6003 16.6965 26.53 16.6828 26.4591 16.6832ZM19.9097 23.3752C19.9097 23.5531 19.8391 23.7237 19.7135 23.8495C19.5878 23.9753 19.4174 24.046 19.2397 24.046H17.8943C17.7199 24.0411 17.5543 23.9682 17.4327 23.843C17.3111 23.7177 17.2431 23.5499 17.2432 23.3752V22.0282C17.2432 21.8502 17.3137 21.6796 17.4394 21.5538C17.565 21.428 17.7355 21.3573 17.9132 21.3573H19.2586C19.4363 21.3573 19.6067 21.428 19.7323 21.5538C19.858 21.6796 19.9286 21.8502 19.9286 22.0282L19.9097 23.3752ZM19.9097 19.6897C19.9076 19.8658 19.8365 20.0339 19.7116 20.1579C19.5868 20.2819 19.4183 20.3518 19.2424 20.3525H17.897C17.7235 20.3483 17.5584 20.2769 17.4364 20.1533C17.3145 20.0297 17.2452 19.8635 17.2432 19.6897V18.3427C17.2432 18.1648 17.3137 17.9942 17.4394 17.8684C17.565 17.7426 17.7355 17.6719 17.9132 17.6719H19.2586C19.4363 17.6719 19.6067 17.7426 19.7323 17.8684C19.858 17.9942 19.9286 18.1648 19.9286 18.3427L19.9097 19.6897ZM23.5908 23.3752C23.59 23.5526 23.5191 23.7225 23.3936 23.8478C23.268 23.973 23.098 24.0433 22.9207 24.0433H21.5753C21.3976 24.0433 21.2272 23.9726 21.1016 23.8468C20.9759 23.721 20.9053 23.5504 20.9053 23.3725V22.0255C20.9053 21.8475 20.9759 21.6769 21.1016 21.5511C21.2272 21.4253 21.3976 21.3546 21.5753 21.3546H22.9207C23.0984 21.3546 23.2689 21.4253 23.3945 21.5511C23.5202 21.6769 23.5908 21.8475 23.5908 22.0255V23.3752ZM23.5908 19.6897C23.5886 19.8662 23.5171 20.0348 23.3917 20.1589C23.2663 20.2829 23.0971 20.3525 22.9207 20.3525H21.5753C21.3976 20.3525 21.2272 20.2818 21.1016 20.156C20.9759 20.0302 20.9053 19.8596 20.9053 19.6817V18.3346C20.9053 18.1567 20.9759 17.9861 21.1016 17.8603C21.2272 17.7345 21.3976 17.6638 21.5753 17.6638H22.9207C23.0984 17.6638 23.2689 17.7345 23.3945 17.8603C23.5202 17.9861 23.5908 18.1567 23.5908 18.3346V19.6897Z" fill="white"/>
</svg>
