<svg width="384" height="512" viewBox="0 0 384 512" fill="none" xmlns="http://www.w3.org/2000/svg">
<path d="M277.333 384H192C180.224 384 170.667 374.464 170.667 362.667C170.667 350.869 180.224 341.333 192 341.333H277.333C289.109 341.333 298.667 350.869 298.667 362.667C298.667 374.464 289.109 384 277.333 384ZM384 405.333V149.333C384 90.5173 336.149 42.6667 277.333 42.6667H273.685C264.875 17.8347 241.152 0 213.333 0H170.667C142.848 0 119.125 17.8347 110.315 42.6667H106.667C47.8507 42.6667 0 90.5173 0 149.333V405.333C0 464.149 47.8507 512 106.667 512H277.333C336.149 512 384 464.149 384 405.333ZM128 85.3333C139.776 85.3333 149.333 75.7973 149.333 64C149.333 52.2027 158.912 42.6667 170.667 42.6667H213.333C225.088 42.6667 234.667 52.224 234.667 64C234.667 75.776 244.224 85.3333 256 85.3333H277.333C312.619 85.3333 341.333 114.048 341.333 149.333V405.333C341.333 440.619 312.619 469.333 277.333 469.333H106.667C71.3813 469.333 42.6667 440.619 42.6667 405.333V149.333C42.6667 114.048 71.3813 85.3333 106.667 85.3333H128ZM106.667 341.333C94.8907 341.333 85.3333 350.891 85.3333 362.667C85.3333 374.443 94.8907 384 106.667 384C118.443 384 128 374.443 128 362.667C128 350.891 118.443 341.333 106.667 341.333ZM298.667 277.333C298.667 265.536 289.109 256 277.333 256H192C180.224 256 170.667 265.536 170.667 277.333C170.667 289.131 180.224 298.667 192 298.667H277.333C289.109 298.667 298.667 289.131 298.667 277.333ZM106.667 256C94.8907 256 85.3333 265.557 85.3333 277.333C85.3333 289.109 94.8907 298.667 106.667 298.667C118.443 298.667 128 289.109 128 277.333C128 265.557 118.443 256 106.667 256ZM298.667 192C298.667 180.203 289.109 170.667 277.333 170.667H192C180.224 170.667 170.667 180.203 170.667 192C170.667 203.797 180.224 213.333 192 213.333H277.333C289.109 213.333 298.667 203.797 298.667 192ZM106.667 170.667C94.8907 170.667 85.3333 180.224 85.3333 192C85.3333 203.776 94.8907 213.333 106.667 213.333C118.443 213.333 128 203.776 128 192C128 180.224 118.443 170.667 106.667 170.667Z" fill="#BF59FD"/>
</svg>
