<svg width="121" height="20" viewBox="0 0 121 20" fill="none" xmlns="http://www.w3.org/2000/svg">
<path d="M20.4665 7.53603C20.3173 7.09188 19.9328 6.76805 19.4699 6.69725L14.0828 5.87402L11.663 0.719093C11.4567 0.2797 11.0157 0 10.5312 0C10.0465 0 9.60581 0.2797 9.39946 0.719093L6.97938 5.87434L1.59222 6.69757C1.12935 6.76837 0.744896 7.09188 0.596002 7.53635C0.447108 7.98082 0.559493 8.47038 0.886805 8.80627L4.8209 12.8405L3.88912 18.5478C3.8123 19.0203 4.01262 19.4952 4.40343 19.7714C4.79391 20.0476 5.30949 20.0756 5.7295 19.8438L10.5316 17.1881L15.3336 19.8438C15.5231 19.9486 15.7317 20 15.9394 20C16.1921 20 16.4448 19.9232 16.6597 19.7714C17.0505 19.4955 17.2505 19.0206 17.1737 18.5478L16.2419 12.8405L20.1763 8.80627C20.503 8.47038 20.6154 7.98082 20.4665 7.53603Z" fill="#BF59FD"/>
<path d="M45.404 7.53603C45.2548 7.09188 44.8703 6.76805 44.4074 6.69725L39.0203 5.87402L36.6005 0.719093C36.3942 0.2797 35.9532 0 35.4687 0C34.984 0 34.5433 0.2797 34.337 0.719093L31.9169 5.87434L26.5297 6.69757C26.0669 6.76837 25.6824 7.09188 25.5335 7.53635C25.3846 7.98082 25.497 8.47038 25.8243 8.80627L29.7584 12.8405L28.8266 18.5478C28.7498 19.0203 28.9501 19.4952 29.3409 19.7714C29.7314 20.0476 30.247 20.0756 30.667 19.8438L35.4691 17.1881L40.2711 19.8438C40.4606 19.9486 40.6692 20 40.8769 20C41.1296 20 41.3823 19.9232 41.5972 19.7714C41.988 19.4955 42.188 19.0206 42.1112 18.5478L41.1794 12.8405L45.1138 8.80627C45.4405 8.47038 45.5529 7.98082 45.404 7.53603Z" fill="#BF59FD"/>
<path d="M70.404 7.53603C70.2548 7.09188 69.8703 6.76805 69.4074 6.69725L64.0203 5.87402L61.6005 0.719093C61.3942 0.2797 60.9532 0 60.4687 0C59.984 0 59.5433 0.2797 59.337 0.719093L56.9169 5.87434L51.5297 6.69757C51.0669 6.76837 50.6824 7.09188 50.5335 7.53635C50.3846 7.98082 50.497 8.47038 50.8243 8.80627L54.7584 12.8405L53.8266 18.5478C53.7498 19.0203 53.9501 19.4952 54.3409 19.7714C54.7314 20.0476 55.247 20.0756 55.667 19.8438L60.4691 17.1881L65.2711 19.8438C65.4606 19.9486 65.6692 20 65.8769 20C66.1296 20 66.3823 19.9232 66.5972 19.7714C66.988 19.4955 67.188 19.0206 67.1112 18.5478L66.1794 12.8405L70.1138 8.80627C70.4405 8.47038 70.5529 7.98082 70.404 7.53603Z" fill="#BF59FD"/>
<path d="M95.404 7.53603C95.2548 7.09188 94.8703 6.76805 94.4074 6.69725L89.0203 5.87402L86.6005 0.719093C86.3942 0.2797 85.9532 0 85.4687 0C84.984 0 84.5433 0.2797 84.337 0.719093L81.9169 5.87434L76.5297 6.69757C76.0669 6.76837 75.6824 7.09188 75.5335 7.53635C75.3846 7.98082 75.497 8.47038 75.8243 8.80627L79.7584 12.8405L78.8266 18.5478C78.7498 19.0203 78.9501 19.4952 79.3409 19.7714C79.7314 20.0476 80.247 20.0756 80.667 19.8438L85.4691 17.1881L90.2711 19.8438C90.4606 19.9486 90.6692 20 90.8769 20C91.1296 20 91.3823 19.9232 91.5972 19.7714C91.988 19.4955 92.188 19.0206 92.1112 18.5478L91.1794 12.8405L95.1138 8.80627C95.4405 8.47038 95.5529 7.98082 95.404 7.53603Z" fill="#BF59FD"/>
<path d="M120.404 7.53603C120.255 7.09188 119.87 6.76805 119.407 6.69725L114.02 5.87402L111.601 0.719093C111.394 0.2797 110.953 0 110.469 0C109.984 0 109.543 0.2797 109.337 0.719093L106.917 5.87434L101.53 6.69757C101.067 6.76837 100.682 7.09188 100.534 7.53635C100.385 7.98082 100.497 8.47038 100.824 8.80627L104.758 12.8405L103.827 18.5478C103.75 19.0203 103.95 19.4952 104.341 19.7714C104.731 20.0476 105.247 20.0756 105.667 19.8438L110.469 17.1881L115.271 19.8438C115.461 19.9486 115.669 20 115.877 20C116.13 20 116.382 19.9232 116.597 19.7714C116.988 19.4955 117.188 19.0206 117.111 18.5478L116.179 12.8405L120.114 8.80627C120.44 8.47038 120.553 7.98082 120.404 7.53603Z" fill="white"/>
</svg>
